<?xml version="1.0" encoding="utf-8"?>
<!-- Generator: Adobe Illustrator 19.1.0, SVG Export Plug-In . SVG Version: 6.00 Build 0)  -->
<!DOCTYPE svg PUBLIC "-//W3C//DTD SVG 1.1//EN" "http://www.w3.org/Graphics/SVG/1.1/DTD/svg11.dtd">
<svg version="1.1" id="Layer_1" xmlns="http://www.w3.org/2000/svg" xmlns:xlink="http://www.w3.org/1999/xlink" x="0px" y="0px"
	 viewBox="0 0 581.4 168.4" style="enable-background:new 0 0 581.4 168.4;" xml:space="preserve">
<style type="text/css">
	.st0{fill:#5A666D;}
	.st1{font-family:'Futura-CondensedMedium';}
	.st2{font-size:33.3657px;}
</style>
<text transform="matrix(1 0 0 1 317.3953 159.2274)"><tspan x="0" y="0" class="st0 st1 st2">the a</tspan><tspan x="53.3" y="0" class="st0 st1 st2">r</tspan><tspan x="62.9" y="0" class="st0 st1 st2">t of o</tspan><tspan x="118" y="0" class="st0 st1 st2">r</tspan><tspan x="127.1" y="0" class="st0 st1 st2">g</tspan><tspan x="140.3" y="0" class="st0 st1 st2">anization</tspan></text>
<path class="st0" d="M272.8,103.7c3.3-9.1,6.7-18.2,10-27.3c2.3-6.7,4.5-13.2,6.9-19.9c1.7,2,3.1,3.6,4.7,7
	c4.5,8.9,5.2,17.9,5.2,24.4c0,37.2-21.7,78.1-35.7,78.1c-5.5,0-6.6-5.8-6.6-10.1c0-7.4,3-16,10.5-37.6L272.8,103.7z M268,52.5
	c-5.3,0.3-8.1,0.5-10.8,3.9c-0.9,1.2-1.6,3.3-1.6,5.8c0,4.1,1.6,8.8,4.4,16.3c0.2,0.8,0.3,1.5,1.1,1.5c0.8,0,0.9-0.5,0.9-1.2
	c0-0.3-0.5-2.2-0.6-2.9c-0.9-3.1-1.9-6.5-1.9-10.5c0-7.7,3.7-8.9,5.3-9.4c3-0.9,11.4-1,15.1-1c-3.3,9.3-12.9,36.6-14.3,40.2
	c-2.8,7.9-5.6,15.8-8,24c-2.8,9.5-5.3,19.1-5.3,28.9c0,12.9,4.7,20.3,10.9,20.3c9.8,0,23.9-15.8,32.1-35.7
	c5.3-12.9,8.1-26.8,8.1-40.8c0-22-8-31.2-12.3-36.6h21.5c0.9,0,1.9-0.5,1.9-1.4c0-1.2-1.4-1.4-1.7-1.4h-22
	c2.7-8.4,3.1-10.7,8.3-30.7c1.2-5,2.8-10.8,6.7-13.9c0.9-0.9,2.5-1.9,4.2-1.9c1.6,0,2.7,0.7,3.6,1.4c0.5,0.3,2.5,2.9,3.1,2.9
	c0.5,0,0.8-1.2,0.8-1.9v-6c0-1-0.2-2.4-1.1-2.4c-0.8,0-5.6,2.1-8.1,3.6c-13.1,7.7-20.1,27.5-27.5,48.9H268z"/>
<g>
	<path class="st0" d="M33.1,106.3c-3.9,1.4-7.6,2.1-11.3,2.1C8.9,108.4,0,99.7,0,88c0-11.4,8.9-20.4,21.5-20.4c3.7,0,7.4,0.8,11,2.4
		v8.3c-3.6-2.2-7.1-3.2-10.8-3.2c-8.2,0-13.6,5.5-13.6,12.8c0,7.5,5.4,13,14,13c3.8,0,7.5-0.9,11-2.7V106.3z"/>
	<path class="st0" d="M49.6,48.4h7.8v59.2h-7.8V48.4z"/>
	<path class="st0" d="M94.6,67.6c5.5,0,10.7,2.2,14.6,6c4,4,6.2,8.9,6.2,14.4c0,5.4-2.3,10.7-6.2,14.5c-4,3.9-9,5.9-14.6,5.9
		c-11.6,0-20.8-9-20.8-20.4C73.8,76.8,82.9,67.6,94.6,67.6z M94.5,101c6.9,0,12.6-5.8,12.6-13c0-7.2-5.6-12.9-12.6-12.9
		c-6.9,0-12.6,5.7-12.6,12.9C81.9,95.3,87.6,101,94.5,101z"/>
	<path class="st0" d="M128.8,96.6c4.9,3.3,9.4,4.8,12.7,4.8c4.1,0,6.4-1.7,6.4-4.2c0-3-3.6-4.2-9.3-7.1c-6.2-3.2-9.5-6.1-9.5-11.8
		c0-6.4,4.9-10.7,13.2-10.7c4.4,0,8.4,1,12.3,3.2v7.6c-4.5-2.5-8.5-3.9-12.2-3.9c-3.3,0-5.1,1.2-5.1,3.3c0,3.1,3.1,4.5,8.9,7.4
		c6.6,3.3,10.2,5.6,10.2,11.8c0,6.8-5.5,11.4-14.1,11.4c-4.9,0-9.3-1.1-13.5-3.5V96.6z"/>
	<path class="st0" d="M190.4,108.5c-12.5,0-20.3-8.5-20.3-21.1c0-11.6,7.7-19.7,19.2-19.7c11.1,0,18.4,7.7,18.4,20.5
		c0,0.3,0,0.8,0,1.1h-29.3c0.4,7.5,5.1,11.8,12.5,11.8c4.9,0,10.3-1.8,16.1-5.6v7.8C201.8,106.8,196.3,108.5,190.4,108.5z
		 M199.1,83.9c-0.5-5.7-4.5-9.4-9.9-9.4c-6,0-9.7,3.3-10.8,9.4H199.1z"/>
	<path class="st0" d="M236.8,108.4c-9.5,0-12-4.4-12-14.6V75.3h-6.7v-0.8l13.7-15.1h0.9v9.1h12.2v6.8h-12.2v18
		c0,5.5,0.6,7.7,5.7,7.7c2.3,0,4.6-0.6,6.8-1.9v7.4C242.7,107.8,239.9,108.4,236.8,108.4z"/>
	<path class="st0" d="M329.5,108.3c-7.2,0-11.2-3.7-11.2-9.4c0-5.6,4.3-9.7,12.9-12.6l9.3-3.1c0.1-0.6,0.1-1.1,0.1-1.6
		c0-4.7-2.2-6.6-7.4-6.6c-4.3,0-9,1.8-13.7,5.5v-7.7c4.1-3.3,9.2-4.9,14.7-4.9c10.3,0,14.4,4.4,14.4,14v16.6c0,2.5,0.3,3.8,1.6,3.8
		c1.3,0,2.4-0.9,4.1-2.2v4.8c-2.9,2.4-5.7,3.5-8.8,3.5c-2.9,0-4.4-1.1-4.7-3.9C336.9,107.1,333.6,108.3,329.5,108.3z M340.5,88.2
		c-9.3,2.9-13.9,5.2-13.9,9.4c0,3.2,2.2,5,5.9,5c2.7,0,5.4-1,8-2.9V88.2z"/>
	<path class="st0" d="M398,106.3c-3.9,1.4-7.6,2.1-11.3,2.1c-12.9,0-21.8-8.7-21.8-20.4c0-11.4,8.9-20.4,21.5-20.4
		c3.7,0,7.4,0.8,11,2.4v8.3c-3.7-2.2-7.1-3.2-10.8-3.2c-8.2,0-13.6,5.5-13.6,12.8c0,7.5,5.4,13,14,13c3.8,0,7.5-0.9,11-2.7V106.3z"
		/>
	<path class="st0" d="M427.4,108.4c-9.5,0-12-4.4-12-14.6V75.3h-6.7v-0.8l13.7-15.1h0.9v9.1h12.2v6.8h-12.2v18
		c0,5.5,0.6,7.7,5.7,7.7c2.3,0,4.6-0.6,6.8-1.9v7.4C433.3,107.8,430.6,108.4,427.4,108.4z"/>
	<path class="st0" d="M469.1,67.6c5.6,0,10.7,2.2,14.6,6c4,4,6.2,8.9,6.2,14.4c0,5.4-2.3,10.7-6.2,14.5c-4,3.9-9,5.9-14.6,5.9
		c-11.6,0-20.8-9-20.8-20.4C448.3,76.8,457.4,67.6,469.1,67.6z M469.1,101c6.9,0,12.6-5.8,12.6-13c0-7.2-5.6-12.9-12.6-12.9
		c-6.9,0-12.6,5.7-12.6,12.9C456.5,95.3,462.1,101,469.1,101z"/>
	<path class="st0" d="M506,68.5h7.8V77c3.9-6.2,7-9.2,11.5-9.2c2.9,0,5.7,1.3,8.9,3.8l-4.2,6.9c-2.4-2.1-4.6-3.1-7.3-3.1
		c-4.1,0-7.6,3.5-8.9,10.1v22.1H506V68.5z"/>
	<path class="st0" d="M540.9,68.5h8.7l12.1,22.9l11.3-22.9h8.5l-29,58.8h-8.5l13.5-27.4L540.9,68.5z"/>
</g>
</svg>
